<?xml version="1.0" encoding="UTF-8"?>
<svg width="200px" height="200px" viewBox="0 0 200 200" version="1.1" xmlns="http://www.w3.org/2000/svg">
    <title>Anime Character</title>
    <g stroke="none" stroke-width="1" fill="none" fill-rule="evenodd">
        <!-- Head -->
        <circle cx="100" cy="90" r="50" fill="#4da6ff" />
        
        <!-- Eyes -->
        <ellipse cx="80" cy="80" rx="15" ry="20" fill="white" />
        <ellipse cx="120" cy="80" rx="15" ry="20" fill="white" />
        <circle cx="80" cy="85" r="8" fill="#333" />
        <circle cx="120" cy="85" r="8" fill="#333" />
        <circle cx="77" cy="82" r="3" fill="white" />
        <circle cx="117" cy="82" r="3" fill="white" />
        
        <!-- Mouth -->
        <path d="M85,110 Q100,120 115,110" stroke="#333" stroke-width="3" fill="none" />
        
        <!-- Hair -->
        <path d="M60,60 Q80,30 100,60 Q120,30 140,60" stroke="#ffcc00" stroke-width="12" fill="none" />
        <path d="M50,80 L55,65 L65,75 Z" fill="#ffcc00" />
        <path d="M150,80 L145,65 L135,75 Z" fill="#ffcc00" />
        
        <!-- Body -->
        <path d="M80,140 Q100,150 120,140 L110,190 L90,190 Z" fill="#4da6ff" />
        
        <!-- Arms -->
        <path d="M80,140 Q60,160 50,180" stroke="#4da6ff" stroke-width="10" fill="none" />
        <path d="M120,140 Q140,160 150,180" stroke="#4da6ff" stroke-width="10" fill="none" />
    </g>
</svg>