<?xml version="1.0" encoding="UTF-8"?>
<svg width="200px" height="200px" viewBox="0 0 200 200" version="1.1" xmlns="http://www.w3.org/2000/svg">
    <title>Series Character</title>
    <g stroke="none" stroke-width="1" fill="none" fill-rule="evenodd">
        <!-- TV Outline -->
        <rect x="40" y="40" width="120" height="90" rx="10" fill="#333" />
        <rect x="50" y="50" width="100" height="70" rx="5" fill="#111" />
        
        <!-- TV Stand -->
        <path d="M85,130 L115,130 L110,160 L90,160 Z" fill="#333" />
        <rect x="75" y="160" width="50" height="10" rx="2" fill="#222" />
        
        <!-- TV Antenna -->
        <line x1="70" y1="40" x2="60" y2="15" stroke="#666" stroke-width="3" />
        <line x1="130" y1="40" x2="140" y2="15" stroke="#666" stroke-width="3" />
        <circle cx="60" cy="15" r="3" fill="#666" />
        <circle cx="140" cy="15" r="3" fill="#666" />
        
        <!-- TV Face -->
        <circle cx="85" cy="75" r="8" fill="#4dff4d" />
        <circle cx="115" cy="75" r="8" fill="#4dff4d" />
        <circle cx="83" cy="73" r="3" fill="white" />
        <circle cx="113" cy="73" r="3" fill="white" />
        <path d="M80,95 Q100,105 120,95" stroke="#4dff4d" stroke-width="3" fill="none" />
        
        <!-- TV Controls -->
        <circle cx="145" cy="60" r="3" fill="#666" />
        <circle cx="145" cy="70" r="3" fill="#666" />
        <circle cx="145" cy="80" r="3" fill="#666" />
    </g>
</svg>